<mxfile host="65bd71144e">
    <diagram id="HYrvO5Fi4T7YHE_qCGP1" name="Page-1">
        <mxGraphModel dx="4810" dy="2806" grid="1" gridSize="5" guides="1" tooltips="1" connect="1" arrows="1" fold="1" page="1" pageScale="1" pageWidth="827" pageHeight="1169" background="#ffffff" math="0" shadow="0">
            <root>
                <mxCell id="0"/>
                <mxCell id="1" parent="0"/>
                <mxCell id="164" value="" style="rounded=1;whiteSpace=wrap;html=1;shadow=0;labelBackgroundColor=#FFFFFF;labelBorderColor=default;sketch=0;fontSize=23;fontColor=#000000;strokeColor=#000000;strokeWidth=2;fillColor=none;dashed=1;arcSize=4;" parent="1" vertex="1">
                    <mxGeometry x="5" y="-87.5" width="1085" height="715" as="geometry"/>
                </mxCell>
                <mxCell id="2" value="&lt;font style=&quot;font-size: 18px&quot;&gt;ESP32-S3-WROOM-1&lt;/font&gt;" style="rounded=0;whiteSpace=wrap;html=1;fontColor=#000000;fillColor=#FFFFFF;strokeColor=#000000;strokeWidth=2;" parent="1" vertex="1">
                    <mxGeometry x="240" y="160" width="320" height="240" as="geometry"/>
                </mxCell>
                <mxCell id="4" value="&lt;font style=&quot;font-size: 18px ; line-height: 1.6&quot;&gt;Expansion connector&lt;br&gt;CON11x2&lt;br&gt;&lt;/font&gt;" style="rounded=0;whiteSpace=wrap;html=1;fontColor=#000000;fillColor=#FFFFFF;strokeColor=#000000;strokeWidth=2;" parent="1" vertex="1">
                    <mxGeometry x="420" y="500" width="140" height="120" as="geometry"/>
                </mxCell>
                <mxCell id="6" value="&lt;font style=&quot;font-size: 18px ; line-height: 1.6&quot;&gt;LED&lt;br&gt;WS2812C&lt;br&gt;&lt;/font&gt;" style="rounded=0;whiteSpace=wrap;html=1;fontColor=#000000;fillColor=#FFFFFF;strokeColor=#000000;strokeWidth=2;" parent="1" vertex="1">
                    <mxGeometry x="240" y="500" width="140" height="60" as="geometry"/>
                </mxCell>
                <mxCell id="149" style="edgeStyle=none;rounded=0;html=1;entryX=0;entryY=0.875;entryDx=0;entryDy=0;entryPerimeter=0;fontSize=23;fontColor=#000000;startArrow=none;startFill=0;strokeColor=#000000;" parent="1" source="8" target="2" edge="1">
                    <mxGeometry relative="1" as="geometry"/>
                </mxCell>
                <mxCell id="8" value="&lt;font style=&quot;font-size: 18px&quot;&gt;Reset&lt;br&gt;Button&lt;br&gt;&lt;/font&gt;" style="rounded=0;whiteSpace=wrap;html=1;fontColor=#000000;fillColor=#FFFFFF;strokeColor=#000000;strokeWidth=2;" parent="1" vertex="1">
                    <mxGeometry x="20" y="340" width="140" height="60" as="geometry"/>
                </mxCell>
                <mxCell id="93" style="edgeStyle=none;html=1;exitX=1;exitY=0.5;exitDx=0;exitDy=0;entryX=0;entryY=0.5;entryDx=0;entryDy=0;fontSize=18;fontColor=#000000;" parent="1" source="9" target="2" edge="1">
                    <mxGeometry relative="1" as="geometry"/>
                </mxCell>
                <mxCell id="148" style="edgeStyle=none;rounded=0;html=1;fontSize=23;fontColor=#000000;startArrow=none;startFill=0;strokeColor=#000000;" parent="1" source="9" edge="1">
                    <mxGeometry relative="1" as="geometry">
                        <mxPoint x="240" y="280" as="targetPoint"/>
                    </mxGeometry>
                </mxCell>
                <mxCell id="9" value="&lt;font style=&quot;font-size: 18px&quot;&gt;Boot&lt;br&gt;Button&lt;br&gt;&lt;/font&gt;" style="rounded=0;whiteSpace=wrap;html=1;fillColor=#FFFFFF;strokeColor=#000000;fontColor=#000000;strokeWidth=2;" parent="1" vertex="1">
                    <mxGeometry x="20" y="250" width="140" height="60" as="geometry"/>
                </mxCell>
                <mxCell id="12" value="&lt;font style=&quot;font-size: 18px ; line-height: 1.6&quot;&gt;USB to UART&lt;br&gt;CP2102N&lt;br&gt;&lt;/font&gt;" style="rounded=0;whiteSpace=wrap;html=1;fontColor=#000000;fillColor=#FFFFFF;strokeColor=#000000;strokeWidth=2;" parent="1" vertex="1">
                    <mxGeometry x="240" y="20" width="140" height="60" as="geometry"/>
                </mxCell>
                <mxCell id="118" style="edgeStyle=none;rounded=0;html=1;entryX=0;entryY=0.5;entryDx=0;entryDy=0;fontSize=18;fontColor=#000000;startArrow=none;startFill=0;strokeColor=#000000;" parent="1" source="13" target="75" edge="1">
                    <mxGeometry relative="1" as="geometry"/>
                </mxCell>
                <mxCell id="13" value="&lt;font style=&quot;font-size: 18px ; line-height: 1.6&quot;&gt;Codec&lt;br&gt;ES8311&lt;br&gt;&lt;/font&gt;" style="rounded=0;whiteSpace=wrap;html=1;fontColor=#000000;fillColor=#FFFFFF;strokeColor=#000000;strokeWidth=2;" parent="1" vertex="1">
                    <mxGeometry x="710" y="70" width="140" height="60" as="geometry"/>
                </mxCell>
                <mxCell id="74" value="&lt;font style=&quot;font-size: 18px ; line-height: 1.6&quot;&gt;ADC&lt;br&gt;ES7210&lt;br&gt;&lt;/font&gt;" style="rounded=0;whiteSpace=wrap;html=1;fontColor=#000000;fillColor=#FFFFFF;strokeColor=#000000;strokeWidth=2;" parent="1" vertex="1">
                    <mxGeometry x="710" y="160" width="140" height="60" as="geometry"/>
                </mxCell>
                <mxCell id="138" style="edgeStyle=none;rounded=0;html=1;fontSize=23;fontColor=#000000;startArrow=none;startFill=0;strokeColor=#000000;" parent="1" source="75" edge="1">
                    <mxGeometry relative="1" as="geometry">
                        <mxPoint x="1080" y="100" as="targetPoint"/>
                    </mxGeometry>
                </mxCell>
                <mxCell id="75" value="&lt;font style=&quot;font-size: 18px ; line-height: 1.6&quot;&gt;PA&lt;br&gt;NS4150&lt;br&gt;&lt;/font&gt;" style="rounded=0;whiteSpace=wrap;html=1;fontColor=#000000;fillColor=#FFFFFF;strokeColor=#000000;strokeWidth=2;" parent="1" vertex="1">
                    <mxGeometry x="910" y="70" width="140" height="60" as="geometry"/>
                </mxCell>
                <mxCell id="77" value="" style="pointerEvents=1;verticalLabelPosition=bottom;shadow=0;dashed=0;align=center;html=1;verticalAlign=top;shape=mxgraph.electrical.electro-mechanical.loudspeaker;fontSize=18;fontColor=#000000;fillColor=#B3B3B3;strokeColor=#000000;" parent="1" vertex="1">
                    <mxGeometry x="1100" y="65" width="60" height="70" as="geometry"/>
                </mxCell>
                <mxCell id="121" style="edgeStyle=none;rounded=0;html=1;fontSize=18;fontColor=#000000;startArrow=none;startFill=0;strokeColor=#000000;" parent="1" edge="1">
                    <mxGeometry relative="1" as="geometry">
                        <mxPoint x="995" y="190" as="sourcePoint"/>
                        <mxPoint x="850" y="190" as="targetPoint"/>
                        <Array as="points">
                            <mxPoint x="980" y="190"/>
                            <mxPoint x="970" y="190"/>
                        </Array>
                    </mxGeometry>
                </mxCell>
                <mxCell id="80" value="" style="html=1;verticalLabelPosition=top;align=center;labelBackgroundColor=#ffffff;verticalAlign=bottom;strokeWidth=1;shadow=0;dashed=0;shape=mxgraph.ios7.icons.microphone;fontSize=18;fontColor=#000000;strokeColor=#000000;fillColor=#B3B3B3;labelPosition=center;rotation=90;" parent="1" vertex="1">
                    <mxGeometry x="1010" y="170" width="17" height="35" as="geometry"/>
                </mxCell>
                <mxCell id="122" style="edgeStyle=none;rounded=0;html=1;fontSize=18;fontColor=#000000;startArrow=none;startFill=0;strokeColor=#000000;" parent="1" edge="1">
                    <mxGeometry relative="1" as="geometry">
                        <mxPoint x="990" y="210" as="sourcePoint"/>
                        <mxPoint x="850" y="210" as="targetPoint"/>
                        <Array as="points">
                            <mxPoint x="995" y="210"/>
                            <mxPoint x="990" y="210"/>
                            <mxPoint x="940" y="210"/>
                        </Array>
                    </mxGeometry>
                </mxCell>
                <mxCell id="82" value="" style="html=1;verticalLabelPosition=middle;align=left;labelBackgroundColor=#ffffff;verticalAlign=middle;strokeWidth=1;shadow=0;dashed=0;shape=mxgraph.ios7.icons.microphone;fontSize=18;fontColor=#000000;strokeColor=#000000;fillColor=#B3B3B3;sketch=0;labelPosition=right;rotation=90;" parent="1" vertex="1">
                    <mxGeometry x="1011" y="194" width="15" height="35" as="geometry"/>
                </mxCell>
                <mxCell id="129" style="edgeStyle=none;rounded=0;html=1;exitX=1;exitY=0.25;exitDx=0;exitDy=0;entryX=0;entryY=0.75;entryDx=0;entryDy=0;fontSize=18;fontColor=#000000;startArrow=none;startFill=0;strokeColor=#000000;" parent="1" source="83" target="75" edge="1">
                    <mxGeometry relative="1" as="geometry">
                        <Array as="points">
                            <mxPoint x="885" y="265"/>
                            <mxPoint x="885" y="115"/>
                        </Array>
                    </mxGeometry>
                </mxCell>
                <mxCell id="83" value="&lt;font style=&quot;font-size: 18px ; line-height: 1.6&quot;&gt;IO Expander&lt;br&gt;TCA9554&lt;br&gt;&lt;/font&gt;" style="rounded=0;whiteSpace=wrap;html=1;fontColor=#000000;fillColor=#FFFFFF;strokeColor=#000000;strokeWidth=2;" parent="1" vertex="1">
                    <mxGeometry x="710" y="250" width="140" height="60" as="geometry"/>
                </mxCell>
                <mxCell id="84" value="&lt;font style=&quot;font-size: 18px ; line-height: 1.6&quot;&gt;LCD sub-board connector&lt;br&gt;CON20x2&lt;br&gt;&lt;/font&gt;" style="rounded=0;whiteSpace=wrap;html=1;fontColor=#000000;fillColor=#FFFFFF;strokeColor=#000000;strokeWidth=2;" parent="1" vertex="1">
                    <mxGeometry x="710" y="360" width="140" height="120" as="geometry"/>
                </mxCell>
                <mxCell id="157" style="edgeStyle=none;rounded=0;html=1;fontSize=23;fontColor=#000000;startArrow=none;startFill=0;strokeColor=#000000;entryX=0.844;entryY=0;entryDx=0;entryDy=0;entryPerimeter=0;" parent="1" source="96" target="2" edge="1">
                    <mxGeometry relative="1" as="geometry">
                        <mxPoint x="510" y="150" as="targetPoint"/>
                    </mxGeometry>
                </mxCell>
                <mxCell id="96" value="&lt;font style=&quot;font-size: 18px ; line-height: 1.6&quot;&gt;DCDC&lt;br&gt;&lt;/font&gt;" style="rounded=0;whiteSpace=wrap;html=1;fontColor=#000000;fillColor=#FFFFFF;strokeColor=#000000;strokeWidth=2;" parent="1" vertex="1">
                    <mxGeometry x="460" y="20" width="100" height="60" as="geometry"/>
                </mxCell>
                <mxCell id="97" value="&lt;font style=&quot;font-size: 18px ; line-height: 1.6&quot;&gt;DCDC&lt;br&gt;&lt;/font&gt;" style="rounded=0;whiteSpace=wrap;html=1;fontColor=#000000;fillColor=#FFFFFF;strokeColor=#000000;strokeWidth=2;" parent="1" vertex="1">
                    <mxGeometry x="460" y="-70" width="100" height="60" as="geometry"/>
                </mxCell>
                <mxCell id="92" value="" style="shape=mxgraph.signs.tech.usb;html=1;pointerEvents=1;verticalLabelPosition=middle;verticalAlign=middle;align=right;labelBackgroundColor=none;fontSize=18;rotation=-90;labelPosition=left;fontColor=#000000;strokeColor=#000000;fillColor=#000000;" parent="1" vertex="1">
                    <mxGeometry x="-70" y="123.5" width="30" height="73" as="geometry"/>
                </mxCell>
                <mxCell id="104" value="" style="endArrow=classic;html=1;fontSize=18;fontColor=#000000;strokeColor=#000000;entryX=0;entryY=0.125;entryDx=0;entryDy=0;entryPerimeter=0;startArrow=classic;startFill=1;" parent="1" edge="1">
                    <mxGeometry width="50" height="50" relative="1" as="geometry">
                        <mxPoint x="20" y="60" as="sourcePoint"/>
                        <mxPoint x="240" y="59.999999999999986" as="targetPoint"/>
                    </mxGeometry>
                </mxCell>
                <mxCell id="105" value="" style="endArrow=classic;html=1;fontSize=18;fontColor=#000000;strokeColor=#000000;entryX=0;entryY=0.125;entryDx=0;entryDy=0;entryPerimeter=0;startArrow=classic;startFill=1;" parent="1" edge="1">
                    <mxGeometry width="50" height="50" relative="1" as="geometry">
                        <mxPoint x="20" y="180" as="sourcePoint"/>
                        <mxPoint x="240" y="180" as="targetPoint"/>
                    </mxGeometry>
                </mxCell>
                <mxCell id="107" value="" style="endArrow=classic;startArrow=classic;html=1;fontSize=18;fontColor=#000000;strokeColor=#000000;exitX=0.219;exitY=0;exitDx=0;exitDy=0;exitPerimeter=0;" parent="1" source="2" edge="1">
                    <mxGeometry width="50" height="50" relative="1" as="geometry">
                        <mxPoint x="260" y="130" as="sourcePoint"/>
                        <mxPoint x="310" y="80" as="targetPoint"/>
                    </mxGeometry>
                </mxCell>
                <mxCell id="111" value="" style="endArrow=classic;startArrow=classic;html=1;fontSize=18;fontColor=#000000;strokeColor=#000000;entryX=0;entryY=0.75;entryDx=0;entryDy=0;" parent="1" target="83" edge="1">
                    <mxGeometry width="50" height="50" relative="1" as="geometry">
                        <mxPoint x="560" y="295" as="sourcePoint"/>
                        <mxPoint x="680" y="290" as="targetPoint"/>
                    </mxGeometry>
                </mxCell>
                <mxCell id="114" value="" style="endArrow=classic;html=1;rounded=0;fontSize=18;fontColor=#000000;strokeColor=#000000;entryX=0;entryY=0.75;entryDx=0;entryDy=0;" parent="1" target="74" edge="1">
                    <mxGeometry width="50" height="50" relative="1" as="geometry">
                        <mxPoint x="640" y="295" as="sourcePoint"/>
                        <mxPoint x="710" y="210" as="targetPoint"/>
                        <Array as="points">
                            <mxPoint x="640" y="205"/>
                            <mxPoint x="670" y="205"/>
                        </Array>
                    </mxGeometry>
                </mxCell>
                <mxCell id="115" value="" style="endArrow=classic;html=1;rounded=0;fontSize=18;fontColor=#000000;strokeColor=#000000;entryX=0;entryY=0.75;entryDx=0;entryDy=0;" parent="1" target="13" edge="1">
                    <mxGeometry width="50" height="50" relative="1" as="geometry">
                        <mxPoint x="640" y="210" as="sourcePoint"/>
                        <mxPoint x="705" y="120" as="targetPoint"/>
                        <Array as="points">
                            <mxPoint x="640" y="115"/>
                        </Array>
                    </mxGeometry>
                </mxCell>
                <mxCell id="116" value="" style="endArrow=classic;startArrow=classic;html=1;rounded=0;fontSize=18;fontColor=#000000;strokeColor=#000000;exitX=1.001;exitY=0.124;exitDx=0;exitDy=0;exitPerimeter=0;entryX=0;entryY=0.5;entryDx=0;entryDy=0;" parent="1" source="2" target="74" edge="1">
                    <mxGeometry width="50" height="50" relative="1" as="geometry">
                        <mxPoint x="560" y="184" as="sourcePoint"/>
                        <mxPoint x="705" y="190" as="targetPoint"/>
                    </mxGeometry>
                </mxCell>
                <mxCell id="117" value="" style="endArrow=classic;html=1;rounded=0;fontSize=18;fontColor=#000000;strokeColor=#000000;entryX=0;entryY=0.5;entryDx=0;entryDy=0;" parent="1" target="13" edge="1">
                    <mxGeometry width="50" height="50" relative="1" as="geometry">
                        <mxPoint x="620" y="190" as="sourcePoint"/>
                        <mxPoint x="620" y="130" as="targetPoint"/>
                        <Array as="points">
                            <mxPoint x="620" y="100"/>
                        </Array>
                    </mxGeometry>
                </mxCell>
                <mxCell id="119" value="" style="endArrow=classic;html=1;rounded=0;fontSize=18;fontColor=#000000;strokeColor=#000000;startArrow=none;" parent="1" source="189" edge="1">
                    <mxGeometry width="50" height="50" relative="1" as="geometry">
                        <mxPoint x="870" y="100" as="sourcePoint"/>
                        <mxPoint x="850" y="170" as="targetPoint"/>
                        <Array as="points">
                            <mxPoint x="870" y="140"/>
                            <mxPoint x="870" y="170"/>
                        </Array>
                    </mxGeometry>
                </mxCell>
                <mxCell id="124" value="" style="endArrow=none;dashed=1;html=1;rounded=0;fontSize=18;fontColor=#000000;strokeColor=#000000;" parent="1" edge="1">
                    <mxGeometry width="50" height="50" relative="1" as="geometry">
                        <mxPoint x="870" y="170" as="sourcePoint"/>
                        <mxPoint x="1060" y="100" as="targetPoint"/>
                        <Array as="points">
                            <mxPoint x="1060" y="170"/>
                        </Array>
                    </mxGeometry>
                </mxCell>
                <mxCell id="136" value="" style="shape=ellipse;fillColor=#000000;strokeColor=none;html=1;sketch=0;shadow=0;labelBackgroundColor=#FFFFFF;labelBorderColor=default;fontSize=23;fontColor=#000000;" parent="1" vertex="1">
                    <mxGeometry x="595" y="80" width="10" height="10" as="geometry"/>
                </mxCell>
                <mxCell id="140" value="" style="endArrow=classic;html=1;rounded=0;fontSize=23;fontColor=#000000;strokeColor=#000000;entryX=0;entryY=0.25;entryDx=0;entryDy=0;exitX=1.001;exitY=0.958;exitDx=0;exitDy=0;exitPerimeter=0;" parent="1" source="2" target="84" edge="1">
                    <mxGeometry width="50" height="50" relative="1" as="geometry">
                        <mxPoint x="560" y="380" as="sourcePoint"/>
                        <mxPoint x="710" y="380" as="targetPoint"/>
                    </mxGeometry>
                </mxCell>
                <mxCell id="141" value="" style="endArrow=classic;html=1;rounded=0;fontSize=23;fontColor=#000000;strokeColor=#000000;entryX=0.5;entryY=0;entryDx=0;entryDy=0;" parent="1" target="84" edge="1">
                    <mxGeometry width="50" height="50" relative="1" as="geometry">
                        <mxPoint x="780" y="310" as="sourcePoint"/>
                        <mxPoint x="900" y="310.03999999999996" as="targetPoint"/>
                    </mxGeometry>
                </mxCell>
                <mxCell id="142" value="" style="endArrow=none;dashed=1;html=1;rounded=0;fontSize=23;fontColor=#000000;strokeColor=#000000;exitX=1;exitY=0.75;exitDx=0;exitDy=0;" parent="1" source="2" target="182" edge="1">
                    <mxGeometry width="50" height="50" relative="1" as="geometry">
                        <mxPoint x="560" y="339.5" as="sourcePoint"/>
                        <mxPoint x="770" y="340" as="targetPoint"/>
                    </mxGeometry>
                </mxCell>
                <mxCell id="143" value="" style="endArrow=classic;html=1;rounded=0;fontSize=23;fontColor=#000000;strokeColor=#000000;entryX=1;entryY=0.5;entryDx=0;entryDy=0;" parent="1" target="4" edge="1">
                    <mxGeometry width="50" height="50" relative="1" as="geometry">
                        <mxPoint x="850" y="290" as="sourcePoint"/>
                        <mxPoint x="940" y="290.03999999999996" as="targetPoint"/>
                        <Array as="points">
                            <mxPoint x="850" y="290"/>
                            <mxPoint x="885" y="290"/>
                            <mxPoint x="885" y="560"/>
                        </Array>
                    </mxGeometry>
                </mxCell>
                <mxCell id="146" value="" style="endArrow=classic;html=1;rounded=0;fontSize=23;fontColor=#000000;strokeColor=#000000;entryX=0.75;entryY=0;entryDx=0;entryDy=0;exitX=0.25;exitY=1;exitDx=0;exitDy=0;" parent="1" source="2" target="6" edge="1">
                    <mxGeometry width="50" height="50" relative="1" as="geometry">
                        <mxPoint x="310" y="410" as="sourcePoint"/>
                        <mxPoint x="380" y="420" as="targetPoint"/>
                        <Array as="points">
                            <mxPoint x="345" y="400"/>
                        </Array>
                    </mxGeometry>
                </mxCell>
                <mxCell id="147" value="" style="endArrow=classic;html=1;rounded=0;fontSize=23;fontColor=#000000;strokeColor=#000000;entryX=0.75;entryY=0;entryDx=0;entryDy=0;exitX=0.75;exitY=1;exitDx=0;exitDy=0;" parent="1" source="2" target="4" edge="1">
                    <mxGeometry width="50" height="50" relative="1" as="geometry">
                        <mxPoint x="430" y="430" as="sourcePoint"/>
                        <mxPoint x="470" y="430" as="targetPoint"/>
                        <Array as="points">
                            <mxPoint x="490" y="400"/>
                            <mxPoint x="525" y="400"/>
                        </Array>
                    </mxGeometry>
                </mxCell>
                <mxCell id="150" value="" style="endArrow=classic;html=1;rounded=0;fontSize=23;fontColor=#000000;strokeColor=#000000;entryX=0;entryY=0.5;entryDx=0;entryDy=0;" parent="1" target="96" edge="1">
                    <mxGeometry width="50" height="50" relative="1" as="geometry">
                        <mxPoint x="20" y="160" as="sourcePoint"/>
                        <mxPoint x="30" y="110" as="targetPoint"/>
                        <Array as="points">
                            <mxPoint x="200" y="160"/>
                            <mxPoint x="200" y="-40"/>
                            <mxPoint x="420" y="-40"/>
                            <mxPoint x="420" y="50"/>
                        </Array>
                    </mxGeometry>
                </mxCell>
                <mxCell id="151" value="" style="endArrow=none;html=1;rounded=0;fontSize=23;fontColor=#000000;strokeColor=#000000;" parent="1" edge="1">
                    <mxGeometry width="50" height="50" relative="1" as="geometry">
                        <mxPoint x="20" y="40" as="sourcePoint"/>
                        <mxPoint x="200" y="40" as="targetPoint"/>
                    </mxGeometry>
                </mxCell>
                <mxCell id="152" value="" style="endArrow=classic;html=1;rounded=0;fontSize=23;fontColor=#000000;strokeColor=#000000;entryX=0;entryY=0.5;entryDx=0;entryDy=0;" parent="1" target="97" edge="1">
                    <mxGeometry width="50" height="50" relative="1" as="geometry">
                        <mxPoint x="420" y="-40" as="sourcePoint"/>
                        <mxPoint x="470" y="-90" as="targetPoint"/>
                    </mxGeometry>
                </mxCell>
                <mxCell id="153" value="" style="endArrow=classic;html=1;rounded=0;fontSize=23;fontColor=#000000;strokeColor=#000000;entryX=0;entryY=0.25;entryDx=0;entryDy=0;" parent="1" target="74" edge="1">
                    <mxGeometry width="50" height="50" relative="1" as="geometry">
                        <mxPoint x="560" y="-40" as="sourcePoint"/>
                        <mxPoint x="705" y="175" as="targetPoint"/>
                        <Array as="points">
                            <mxPoint x="600" y="-40"/>
                            <mxPoint x="600" y="175"/>
                        </Array>
                    </mxGeometry>
                </mxCell>
                <mxCell id="154" value="" style="endArrow=classic;html=1;rounded=0;fontSize=23;fontColor=#000000;strokeColor=#000000;entryX=0;entryY=0.25;entryDx=0;entryDy=0;" parent="1" target="13" edge="1">
                    <mxGeometry width="50" height="50" relative="1" as="geometry">
                        <mxPoint x="600" y="85" as="sourcePoint"/>
                        <mxPoint x="650" y="30" as="targetPoint"/>
                    </mxGeometry>
                </mxCell>
                <mxCell id="158" value="" style="endArrow=classic;html=1;rounded=0;fontSize=23;fontColor=#000000;strokeColor=#000000;entryX=0;entryY=0.75;entryDx=0;entryDy=0;" parent="1" target="84" edge="1">
                    <mxGeometry width="50" height="50" relative="1" as="geometry">
                        <mxPoint x="200" y="160" as="sourcePoint"/>
                        <mxPoint x="250" y="110" as="targetPoint"/>
                        <Array as="points">
                            <mxPoint x="200" y="450"/>
                        </Array>
                    </mxGeometry>
                </mxCell>
                <mxCell id="159" value="" style="endArrow=classic;html=1;rounded=0;fontSize=23;fontColor=#000000;strokeColor=#000000;entryX=0.25;entryY=0;entryDx=0;entryDy=0;" parent="1" target="6" edge="1">
                    <mxGeometry width="50" height="50" relative="1" as="geometry">
                        <mxPoint x="275" y="450" as="sourcePoint"/>
                        <mxPoint x="230" y="495" as="targetPoint"/>
                    </mxGeometry>
                </mxCell>
                <mxCell id="160" value="" style="endArrow=classic;html=1;rounded=0;fontSize=23;fontColor=#000000;strokeColor=#000000;entryX=0.25;entryY=0;entryDx=0;entryDy=0;" parent="1" target="4" edge="1">
                    <mxGeometry width="50" height="50" relative="1" as="geometry">
                        <mxPoint x="455" y="450" as="sourcePoint"/>
                        <mxPoint x="425" y="480" as="targetPoint"/>
                    </mxGeometry>
                </mxCell>
                <mxCell id="161" value="" style="endArrow=classic;html=1;rounded=0;fontSize=23;fontColor=#000000;strokeColor=#000000;entryX=0.5;entryY=0;entryDx=0;entryDy=0;" parent="1" target="4" edge="1">
                    <mxGeometry width="50" height="50" relative="1" as="geometry">
                        <mxPoint x="510" y="120" as="sourcePoint"/>
                        <mxPoint x="595" y="415" as="targetPoint"/>
                        <Array as="points">
                            <mxPoint x="580" y="120"/>
                            <mxPoint x="580" y="420"/>
                            <mxPoint x="490" y="420"/>
                        </Array>
                    </mxGeometry>
                </mxCell>
                <mxCell id="162" value="" style="endArrow=classic;html=1;rounded=0;fontSize=23;fontColor=#000000;strokeColor=#000000;entryX=0;entryY=0.5;entryDx=0;entryDy=0;" parent="1" target="84" edge="1">
                    <mxGeometry width="50" height="50" relative="1" as="geometry">
                        <mxPoint x="580" y="420" as="sourcePoint"/>
                        <mxPoint x="630" y="370" as="targetPoint"/>
                    </mxGeometry>
                </mxCell>
                <mxCell id="163" value="" style="endArrow=classic;html=1;rounded=0;fontSize=23;fontColor=#000000;strokeColor=#000000;entryX=0;entryY=0.5;entryDx=0;entryDy=0;" parent="1" target="83" edge="1">
                    <mxGeometry width="50" height="50" relative="1" as="geometry">
                        <mxPoint x="580" y="280" as="sourcePoint"/>
                        <mxPoint x="630" y="220" as="targetPoint"/>
                    </mxGeometry>
                </mxCell>
                <mxCell id="165" value="&lt;font style=&quot;font-size: 18px&quot;&gt;USB-to-UART&lt;br&gt;Port&lt;/font&gt;" style="text;html=1;strokeColor=none;fillColor=none;align=center;verticalAlign=middle;whiteSpace=wrap;rounded=0;shadow=0;dashed=1;labelBackgroundColor=none;labelBorderColor=none;sketch=0;fontSize=23;fontColor=#000000;" parent="1" vertex="1">
                    <mxGeometry x="-142.5" y="70" width="175" height="30" as="geometry"/>
                </mxCell>
                <mxCell id="166" value="&lt;font style=&quot;font-size: 18px&quot;&gt;USB-to-USB&lt;br&gt;Port&lt;/font&gt;" style="text;html=1;strokeColor=none;fillColor=none;align=center;verticalAlign=middle;whiteSpace=wrap;rounded=0;shadow=0;dashed=1;labelBackgroundColor=none;labelBorderColor=none;sketch=0;fontSize=23;fontColor=#000000;" parent="1" vertex="1">
                    <mxGeometry x="-142.5" y="196.5" width="175" height="30" as="geometry"/>
                </mxCell>
                <mxCell id="167" value="5V" style="text;html=1;strokeColor=none;fillColor=none;align=center;verticalAlign=middle;whiteSpace=wrap;rounded=0;shadow=0;dashed=1;labelBackgroundColor=none;labelBorderColor=none;sketch=0;fontSize=14;fontColor=#000000;" parent="1" vertex="1">
                    <mxGeometry x="425" y="-65" width="30" height="30" as="geometry"/>
                </mxCell>
                <mxCell id="172" value="" style="shape=ellipse;fillColor=#000000;strokeColor=none;html=1;sketch=0;shadow=0;labelBackgroundColor=#FFFFFF;labelBorderColor=default;fontSize=23;fontColor=#000000;" parent="1" vertex="1">
                    <mxGeometry x="195" y="35" width="10" height="10" as="geometry"/>
                </mxCell>
                <mxCell id="176" value="" style="shape=ellipse;fillColor=#000000;strokeColor=none;html=1;sketch=0;shadow=0;labelBackgroundColor=#FFFFFF;labelBorderColor=default;fontSize=20;fontColor=#000000;" parent="1" vertex="1">
                    <mxGeometry x="195" y="155" width="10" height="10" as="geometry"/>
                </mxCell>
                <mxCell id="177" value="" style="shape=ellipse;fillColor=#000000;strokeColor=none;html=1;sketch=0;shadow=0;labelBackgroundColor=#FFFFFF;labelBorderColor=default;fontSize=23;fontColor=#000000;" parent="1" vertex="1">
                    <mxGeometry x="270" y="445" width="10" height="10" as="geometry"/>
                </mxCell>
                <mxCell id="179" value="" style="shape=ellipse;fillColor=#000000;strokeColor=none;html=1;sketch=0;shadow=0;labelBackgroundColor=#FFFFFF;labelBorderColor=default;fontSize=23;fontColor=#000000;" parent="1" vertex="1">
                    <mxGeometry x="450" y="445" width="10" height="10" as="geometry"/>
                </mxCell>
                <mxCell id="180" value="" style="shape=ellipse;fillColor=#000000;strokeColor=none;html=1;sketch=0;shadow=0;labelBackgroundColor=#FFFFFF;labelBorderColor=default;fontSize=23;fontColor=#000000;" parent="1" vertex="1">
                    <mxGeometry x="575" y="415" width="10" height="10" as="geometry"/>
                </mxCell>
                <mxCell id="182" value="" style="shape=ellipse;fillColor=#000000;strokeColor=none;html=1;sketch=0;shadow=0;labelBackgroundColor=#FFFFFF;labelBorderColor=default;fontSize=23;fontColor=#000000;" parent="1" vertex="1">
                    <mxGeometry x="775" y="335" width="10" height="10" as="geometry"/>
                </mxCell>
                <mxCell id="183" value="" style="shape=ellipse;fillColor=#000000;strokeColor=none;html=1;sketch=0;shadow=0;labelBackgroundColor=#FFFFFF;labelBorderColor=default;fontSize=23;fontColor=#000000;" parent="1" vertex="1">
                    <mxGeometry x="635" y="290" width="10" height="10" as="geometry"/>
                </mxCell>
                <mxCell id="184" value="" style="shape=mxgraph.signs.tech.usb;html=1;pointerEvents=1;verticalLabelPosition=middle;verticalAlign=middle;align=right;labelBackgroundColor=none;fontSize=18;rotation=-90;labelPosition=left;fontColor=#000000;strokeColor=#000000;fillColor=#000000;" parent="1" vertex="1">
                    <mxGeometry x="-70" y="3.5" width="30" height="73" as="geometry"/>
                </mxCell>
                <mxCell id="185" value="" style="endArrow=classic;html=1;rounded=0;fontSize=18;fontColor=#000000;strokeColor=#000000;entryX=0.5;entryY=0;entryDx=0;entryDy=0;" parent="1" target="75" edge="1">
                    <mxGeometry width="50" height="50" relative="1" as="geometry">
                        <mxPoint x="420" y="5" as="sourcePoint"/>
                        <mxPoint x="905" y="25" as="targetPoint"/>
                        <Array as="points">
                            <mxPoint x="980" y="5"/>
                        </Array>
                    </mxGeometry>
                </mxCell>
                <mxCell id="186" value="" style="shape=ellipse;fillColor=#000000;strokeColor=none;html=1;sketch=0;shadow=0;labelBackgroundColor=#FFFFFF;labelBorderColor=default;fontSize=23;fontColor=#000000;" parent="1" vertex="1">
                    <mxGeometry x="635" y="200" width="10" height="10" as="geometry"/>
                </mxCell>
                <mxCell id="187" value="" style="shape=ellipse;fillColor=#000000;strokeColor=none;html=1;sketch=0;shadow=0;labelBackgroundColor=#FFFFFF;labelBorderColor=default;fontSize=23;fontColor=#000000;" parent="1" vertex="1">
                    <mxGeometry x="615" y="185" width="10" height="10" as="geometry"/>
                </mxCell>
                <mxCell id="188" value="" style="shape=ellipse;fillColor=#000000;strokeColor=none;html=1;sketch=0;shadow=0;labelBackgroundColor=#FFFFFF;labelBorderColor=default;fontSize=23;fontColor=#000000;" parent="1" vertex="1">
                    <mxGeometry x="575" y="275" width="10" height="10" as="geometry"/>
                </mxCell>
                <mxCell id="189" value="" style="shape=ellipse;fillColor=#000000;strokeColor=none;html=1;sketch=0;shadow=0;labelBackgroundColor=#FFFFFF;labelBorderColor=default;fontSize=23;fontColor=#000000;" parent="1" vertex="1">
                    <mxGeometry x="865" y="165" width="10" height="10" as="geometry"/>
                </mxCell>
                <mxCell id="190" value="" style="endArrow=none;html=1;rounded=0;fontSize=18;fontColor=#000000;strokeColor=#000000;" parent="1" target="189" edge="1">
                    <mxGeometry width="50" height="50" relative="1" as="geometry">
                        <mxPoint x="870" y="100" as="sourcePoint"/>
                        <mxPoint x="850" y="170" as="targetPoint"/>
                        <Array as="points"/>
                    </mxGeometry>
                </mxCell>
                <mxCell id="191" value="" style="shape=ellipse;fillColor=#000000;strokeColor=none;html=1;sketch=0;shadow=0;labelBackgroundColor=#FFFFFF;labelBorderColor=default;fontSize=23;fontColor=#000000;" parent="1" vertex="1">
                    <mxGeometry x="505" y="115" width="10" height="10" as="geometry"/>
                </mxCell>
                <mxCell id="193" value="&lt;font style=&quot;font-size: 14px&quot;&gt;3.3V&lt;/font&gt;" style="text;html=1;strokeColor=none;fillColor=none;align=center;verticalAlign=middle;whiteSpace=wrap;rounded=0;shadow=0;dashed=1;labelBackgroundColor=none;labelBorderColor=none;sketch=0;fontSize=16;fontColor=#000000;" parent="1" vertex="1">
                    <mxGeometry x="660" y="255" width="30" height="30" as="geometry"/>
                </mxCell>
                <mxCell id="197" value="" style="shape=ellipse;fillColor=#000000;strokeColor=none;html=1;sketch=0;shadow=0;labelBackgroundColor=#FFFFFF;labelBorderColor=default;fontSize=23;fontColor=#000000;" parent="1" vertex="1">
                    <mxGeometry x="595" y="170" width="10" height="10" as="geometry"/>
                </mxCell>
                <mxCell id="199" value="3.3V" style="text;html=1;strokeColor=none;fillColor=none;align=center;verticalAlign=middle;whiteSpace=wrap;rounded=0;shadow=0;dashed=1;labelBackgroundColor=none;labelBorderColor=none;sketch=0;fontSize=14;fontColor=#000000;" parent="1" vertex="1">
                    <mxGeometry x="660" y="150" width="30" height="30" as="geometry"/>
                </mxCell>
                <mxCell id="201" value="&lt;font style=&quot;font-size: 14px&quot;&gt;3.3V&lt;/font&gt;" style="text;html=1;strokeColor=none;fillColor=none;align=center;verticalAlign=middle;whiteSpace=wrap;rounded=0;shadow=0;dashed=1;labelBackgroundColor=none;labelBorderColor=none;sketch=0;fontSize=16;fontColor=#000000;" parent="1" vertex="1">
                    <mxGeometry x="515" y="125" width="30" height="30" as="geometry"/>
                </mxCell>
                <mxCell id="202" value="&lt;font style=&quot;font-size: 14px&quot;&gt;3.3V&lt;/font&gt;" style="text;html=1;strokeColor=none;fillColor=none;align=center;verticalAlign=middle;whiteSpace=wrap;rounded=0;shadow=0;dashed=1;labelBackgroundColor=none;labelBorderColor=none;sketch=0;fontSize=16;fontColor=#000000;" parent="1" vertex="1">
                    <mxGeometry x="350" y="90" width="30" height="30" as="geometry"/>
                </mxCell>
                <mxCell id="203" value="" style="shape=ellipse;fillColor=#000000;strokeColor=none;html=1;sketch=0;shadow=0;labelBackgroundColor=#FFFFFF;labelBorderColor=default;fontSize=23;fontColor=#000000;" parent="1" vertex="1">
                    <mxGeometry x="415" width="10" height="10" as="geometry"/>
                </mxCell>
                <mxCell id="205" value="" style="endArrow=classic;html=1;rounded=0;fontSize=14;fontColor=#000000;strokeColor=#000000;entryX=0.75;entryY=1;entryDx=0;entryDy=0;" parent="1" source="191" target="12" edge="1">
                    <mxGeometry width="50" height="50" relative="1" as="geometry">
                        <mxPoint x="210" y="110" as="sourcePoint"/>
                        <mxPoint x="260" y="60" as="targetPoint"/>
                        <Array as="points">
                            <mxPoint x="345" y="120"/>
                        </Array>
                    </mxGeometry>
                </mxCell>
                <mxCell id="208" value="&lt;font style=&quot;font-size: 14px&quot;&gt;3.3V&lt;/font&gt;" style="text;html=1;strokeColor=none;fillColor=none;align=center;verticalAlign=middle;whiteSpace=wrap;rounded=0;shadow=0;dashed=1;labelBackgroundColor=none;labelBorderColor=none;sketch=0;fontSize=16;fontColor=#000000;" parent="1" vertex="1">
                    <mxGeometry x="660" y="395" width="30" height="30" as="geometry"/>
                </mxCell>
                <mxCell id="209" value="&lt;font style=&quot;font-size: 14px&quot;&gt;3.3V&lt;/font&gt;" style="text;html=1;strokeColor=none;fillColor=none;align=center;verticalAlign=middle;whiteSpace=wrap;rounded=0;shadow=0;dashed=1;labelBackgroundColor=none;labelBorderColor=none;sketch=0;fontSize=14;fontColor=#000000;rotation=0;" parent="1" vertex="1">
                    <mxGeometry x="490" y="462.5" width="30" height="25" as="geometry"/>
                </mxCell>
                <mxCell id="211" value="3.3V" style="text;html=1;strokeColor=none;fillColor=none;align=center;verticalAlign=middle;whiteSpace=wrap;rounded=0;shadow=0;dashed=1;labelBackgroundColor=none;labelBorderColor=none;sketch=0;fontSize=14;fontColor=#000000;" parent="1" vertex="1">
                    <mxGeometry x="665" y="60" width="30" height="30" as="geometry"/>
                </mxCell>
                <mxCell id="215" value="5V" style="text;html=1;strokeColor=none;fillColor=none;align=center;verticalAlign=middle;whiteSpace=wrap;rounded=0;shadow=0;dashed=1;labelBackgroundColor=none;labelBorderColor=none;sketch=0;fontSize=14;fontColor=#000000;" parent="1" vertex="1">
                    <mxGeometry x="425" y="25" width="30" height="30" as="geometry"/>
                </mxCell>
                <mxCell id="217" value="5V" style="text;html=1;strokeColor=none;fillColor=none;align=center;verticalAlign=middle;whiteSpace=wrap;rounded=0;shadow=0;dashed=1;labelBackgroundColor=none;labelBorderColor=none;sketch=0;fontSize=14;fontColor=#000000;rotation=0;" parent="1" vertex="1">
                    <mxGeometry x="275" y="460" width="30" height="30" as="geometry"/>
                </mxCell>
                <mxCell id="218" value="5V" style="text;html=1;strokeColor=none;fillColor=none;align=center;verticalAlign=middle;whiteSpace=wrap;rounded=0;shadow=0;dashed=1;labelBackgroundColor=none;labelBorderColor=none;sketch=0;fontSize=14;fontColor=#000000;rotation=0;" parent="1" vertex="1">
                    <mxGeometry x="450" y="460" width="30" height="30" as="geometry"/>
                </mxCell>
                <mxCell id="219" value="" style="endArrow=classic;html=1;rounded=0;fontSize=14;fontColor=#000000;strokeColor=#000000;entryX=0.5;entryY=0;entryDx=0;entryDy=0;" parent="1" target="12" edge="1">
                    <mxGeometry width="50" height="50" relative="1" as="geometry">
                        <mxPoint x="310" y="-40" as="sourcePoint"/>
                        <mxPoint x="410" y="10" as="targetPoint"/>
                    </mxGeometry>
                </mxCell>
                <mxCell id="220" value="5V" style="text;html=1;strokeColor=none;fillColor=none;align=center;verticalAlign=middle;whiteSpace=wrap;rounded=0;shadow=0;dashed=1;labelBackgroundColor=none;labelBorderColor=none;sketch=0;fontSize=14;fontColor=#000000;" parent="1" vertex="1">
                    <mxGeometry x="307.5" y="-15" width="30" height="30" as="geometry"/>
                </mxCell>
                <mxCell id="221" value="" style="shape=ellipse;fillColor=#000000;strokeColor=none;html=1;sketch=0;shadow=0;labelBackgroundColor=#FFFFFF;labelBorderColor=default;fontSize=23;fontColor=#000000;" parent="1" vertex="1">
                    <mxGeometry x="305" y="-45" width="10" height="10" as="geometry"/>
                </mxCell>
                <mxCell id="222" value="5V" style="text;html=1;strokeColor=none;fillColor=none;align=center;verticalAlign=middle;whiteSpace=wrap;rounded=0;shadow=0;dashed=1;labelBackgroundColor=none;labelBorderColor=none;sketch=0;fontSize=14;fontColor=#000000;" parent="1" vertex="1">
                    <mxGeometry x="980" y="35" width="30" height="30" as="geometry"/>
                </mxCell>
                <mxCell id="223" value="&lt;font style=&quot;font-size: 14px&quot;&gt;5V&lt;/font&gt;" style="text;html=1;strokeColor=none;fillColor=none;align=center;verticalAlign=middle;whiteSpace=wrap;rounded=0;shadow=0;dashed=1;labelBackgroundColor=none;labelBorderColor=none;sketch=0;fontSize=16;fontColor=#000000;rotation=0;" parent="1" vertex="1">
                    <mxGeometry x="665" y="425" width="30" height="30" as="geometry"/>
                </mxCell>
                <mxCell id="224" value="&lt;font style=&quot;font-size: 14px&quot;&gt;IOs&lt;/font&gt;" style="text;html=1;strokeColor=none;fillColor=none;align=center;verticalAlign=middle;whiteSpace=wrap;rounded=0;shadow=0;dashed=1;labelBackgroundColor=none;labelBorderColor=none;sketch=0;fontSize=14;fontColor=#000000;rotation=0;" parent="1" vertex="1">
                    <mxGeometry x="525" y="462.5" width="30" height="25" as="geometry"/>
                </mxCell>
                <mxCell id="225" value="&lt;font style=&quot;font-size: 14px&quot;&gt;IOs&lt;/font&gt;" style="text;html=1;strokeColor=none;fillColor=none;align=center;verticalAlign=middle;whiteSpace=wrap;rounded=0;shadow=0;dashed=1;labelBackgroundColor=none;labelBorderColor=none;sketch=0;fontSize=14;fontColor=#000000;rotation=0;" parent="1" vertex="1">
                    <mxGeometry x="570" y="535" width="30" height="25" as="geometry"/>
                </mxCell>
                <mxCell id="226" value="&lt;font style=&quot;font-size: 14px&quot;&gt;IOs&lt;/font&gt;" style="text;html=1;strokeColor=none;fillColor=none;align=center;verticalAlign=middle;whiteSpace=wrap;rounded=0;shadow=0;dashed=1;labelBackgroundColor=none;labelBorderColor=none;sketch=0;fontSize=14;fontColor=#000000;rotation=0;" parent="1" vertex="1">
                    <mxGeometry x="665" y="375" width="30" height="15" as="geometry"/>
                </mxCell>
                <mxCell id="229" value="&lt;font style=&quot;font-size: 14px&quot;&gt;IO0&lt;/font&gt;" style="text;html=1;strokeColor=none;fillColor=none;align=center;verticalAlign=middle;whiteSpace=wrap;rounded=0;shadow=0;dashed=1;labelBackgroundColor=none;labelBorderColor=none;sketch=0;fontSize=14;fontColor=#000000;rotation=0;" parent="1" vertex="1">
                    <mxGeometry x="200" y="260" width="30" height="25" as="geometry"/>
                </mxCell>
                <mxCell id="230" value="&lt;font style=&quot;font-size: 14px&quot;&gt;EN&lt;/font&gt;" style="text;html=1;strokeColor=none;fillColor=none;align=center;verticalAlign=middle;whiteSpace=wrap;rounded=0;shadow=0;dashed=1;labelBackgroundColor=none;labelBorderColor=none;sketch=0;fontSize=14;fontColor=#000000;rotation=0;" parent="1" vertex="1">
                    <mxGeometry x="200" y="350" width="30" height="25" as="geometry"/>
                </mxCell>
                <mxCell id="231" value="&lt;font style=&quot;font-size: 14px&quot;&gt;USB_D+/D-&lt;/font&gt;" style="text;html=1;strokeColor=none;fillColor=none;align=center;verticalAlign=middle;whiteSpace=wrap;rounded=0;shadow=0;dashed=1;labelBackgroundColor=none;labelBorderColor=none;sketch=0;fontSize=14;fontColor=#000000;rotation=0;" parent="1" vertex="1">
                    <mxGeometry x="110" y="160" width="30" height="25" as="geometry"/>
                </mxCell>
                <mxCell id="233" value="&lt;font style=&quot;font-size: 14px&quot;&gt;USB_D+/D-&lt;/font&gt;" style="text;html=1;strokeColor=none;fillColor=none;align=center;verticalAlign=middle;whiteSpace=wrap;rounded=0;shadow=0;dashed=1;labelBackgroundColor=none;labelBorderColor=none;sketch=0;fontSize=14;fontColor=#000000;rotation=0;" parent="1" vertex="1">
                    <mxGeometry x="110" y="40" width="30" height="25" as="geometry"/>
                </mxCell>
                <mxCell id="235" value="5V" style="text;html=1;strokeColor=none;fillColor=none;align=center;verticalAlign=middle;whiteSpace=wrap;rounded=0;shadow=0;dashed=1;labelBackgroundColor=none;labelBorderColor=none;sketch=0;fontSize=14;fontColor=#000000;rotation=0;" parent="1" vertex="1">
                    <mxGeometry x="105" y="135" width="30" height="30" as="geometry"/>
                </mxCell>
                <mxCell id="236" value="5V" style="text;html=1;strokeColor=none;fillColor=none;align=center;verticalAlign=middle;whiteSpace=wrap;rounded=0;shadow=0;dashed=1;labelBackgroundColor=none;labelBorderColor=none;sketch=0;fontSize=14;fontColor=#000000;rotation=0;" parent="1" vertex="1">
                    <mxGeometry x="110" y="15" width="30" height="30" as="geometry"/>
                </mxCell>
                <mxCell id="237" value="&lt;font style=&quot;font-size: 14px&quot;&gt;IO4&lt;/font&gt;" style="text;html=1;strokeColor=none;fillColor=none;align=center;verticalAlign=middle;whiteSpace=wrap;rounded=0;shadow=0;dashed=1;labelBackgroundColor=none;labelBorderColor=none;sketch=0;fontSize=14;fontColor=#000000;rotation=0;" parent="1" vertex="1">
                    <mxGeometry x="345" y="462.5" width="30" height="25" as="geometry"/>
                </mxCell>
                <mxCell id="238" value="&lt;font style=&quot;font-size: 14px&quot;&gt;I2C&lt;/font&gt;" style="text;html=1;strokeColor=none;fillColor=none;align=center;verticalAlign=middle;whiteSpace=wrap;rounded=0;shadow=0;dashed=1;labelBackgroundColor=none;labelBorderColor=none;sketch=0;fontSize=16;fontColor=#000000;" parent="1" vertex="1">
                    <mxGeometry x="660" y="280" width="30" height="15" as="geometry"/>
                </mxCell>
                <mxCell id="240" value="&lt;font style=&quot;font-size: 14px&quot;&gt;I2C&lt;/font&gt;" style="text;html=1;strokeColor=none;fillColor=none;align=center;verticalAlign=middle;whiteSpace=wrap;rounded=0;shadow=0;dashed=1;labelBackgroundColor=none;labelBorderColor=none;sketch=0;fontSize=16;fontColor=#000000;" parent="1" vertex="1">
                    <mxGeometry x="660" y="190" width="30" height="15" as="geometry"/>
                </mxCell>
                <mxCell id="241" value="&lt;font style=&quot;font-size: 14px&quot;&gt;I2C&lt;/font&gt;" style="text;html=1;strokeColor=none;fillColor=none;align=center;verticalAlign=middle;whiteSpace=wrap;rounded=0;shadow=0;dashed=1;labelBackgroundColor=none;labelBorderColor=none;sketch=0;fontSize=16;fontColor=#000000;" parent="1" vertex="1">
                    <mxGeometry x="660" y="100" width="30" height="15" as="geometry"/>
                </mxCell>
                <mxCell id="242" value="&lt;font style=&quot;font-size: 14px&quot;&gt;I2S&lt;/font&gt;" style="text;html=1;strokeColor=none;fillColor=none;align=center;verticalAlign=middle;whiteSpace=wrap;rounded=0;shadow=0;dashed=1;labelBackgroundColor=none;labelBorderColor=none;sketch=0;fontSize=16;fontColor=#000000;" parent="1" vertex="1">
                    <mxGeometry x="660" y="85" width="30" height="15" as="geometry"/>
                </mxCell>
                <mxCell id="243" value="&lt;font style=&quot;font-size: 14px&quot;&gt;I2S&lt;/font&gt;" style="text;html=1;strokeColor=none;fillColor=none;align=center;verticalAlign=middle;whiteSpace=wrap;rounded=0;shadow=0;dashed=1;labelBackgroundColor=none;labelBorderColor=none;sketch=0;fontSize=16;fontColor=#000000;" parent="1" vertex="1">
                    <mxGeometry x="660" y="175" width="30" height="15" as="geometry"/>
                </mxCell>
                <mxCell id="244" value="&lt;font style=&quot;font-size: 14px&quot;&gt;UART&lt;/font&gt;" style="text;html=1;strokeColor=none;fillColor=none;align=center;verticalAlign=middle;whiteSpace=wrap;rounded=0;shadow=0;dashed=1;labelBackgroundColor=none;labelBorderColor=none;sketch=0;fontSize=16;fontColor=#000000;" parent="1" vertex="1">
                    <mxGeometry x="310" y="132.5" width="60" height="15" as="geometry"/>
                </mxCell>
                <mxCell id="245" value="MIC1" style="text;html=1;strokeColor=none;fillColor=none;align=center;verticalAlign=middle;whiteSpace=wrap;rounded=0;shadow=0;dashed=1;labelBackgroundColor=none;labelBorderColor=none;sketch=0;fontSize=18;fontColor=#000000;" parent="1" vertex="1">
                    <mxGeometry x="1050" y="170" width="30" height="30" as="geometry"/>
                </mxCell>
                <mxCell id="246" value="MIC2" style="text;html=1;strokeColor=none;fillColor=none;align=center;verticalAlign=middle;whiteSpace=wrap;rounded=0;shadow=0;dashed=1;labelBackgroundColor=none;labelBorderColor=none;sketch=0;fontSize=18;fontColor=#000000;" parent="1" vertex="1">
                    <mxGeometry x="1050" y="195" width="30" height="30" as="geometry"/>
                </mxCell>
                <mxCell id="247" value="&lt;font style=&quot;font-size: 18px&quot;&gt;Speaker&lt;/font&gt;" style="text;html=1;strokeColor=none;fillColor=none;align=center;verticalAlign=middle;whiteSpace=wrap;rounded=0;shadow=0;dashed=1;labelBackgroundColor=none;labelBorderColor=none;sketch=0;fontSize=14;fontColor=#000000;" parent="1" vertex="1">
                    <mxGeometry x="1100" y="135" width="60" height="30" as="geometry"/>
                </mxCell>
            </root>
        </mxGraphModel>
    </diagram>
</mxfile>